<svg height="512" viewBox="0 0 74 74" width="512" xmlns="http://www.w3.org/2000/svg"><g id="line_color" data-name="line color"><path d="m69.01 71.5h-64.02a.5.5 0 0 1 -.5-.5v-58.621a.5.5 0 1 1 1 0v58.121h63.52a.5.5 0 0 1 0 1z" fill="#323c6b"/><path d="m11.932 20.221h8.401v45.136h-8.401z" fill="#27ccbc"/><path d="m26.229 27.048h8.401v38.308h-8.401z" fill="#fe7058"/><path d="m40.527 36.296h8.401v29.061h-8.401z" fill="#89c5cd"/><path d="m54.824 44.908h8.401v20.449h-8.401z" fill="#fcd462"/><path d="m14.333 20.22v.001h3.697v45.139h2.3v-45.14z" fill="#21b3a9"/><path d="m34.63 27.05v38.31h-2.3v-38.309h-6.1v-.001z" fill="#ea6453"/><path d="m48.93 36.3v29.06h-2.31v-29.069h-6.09v.009z" fill="#6eaaad"/><path d="m63.23 44.91v20.45h-2.31v-20.449h-6.1v-.001z" fill="#f7be56"/><path d="m8.932 39.2a.5.5 0 0 1 -.5-.5v-8.325a.5.5 0 0 1 1 0v8.325a.5.5 0 0 1 -.5.5z" fill="#323c6b"/><path d="m8.932 28.3a.5.5 0 0 1 -.5-.5v-.5a.5.5 0 0 1 1 0v.5a.5.5 0 0 1 -.5.5z" fill="#323c6b"/><path d="m37.934 15.125a.541.541 0 0 1 -.074-.005.5.5 0 0 1 -.421-.568l.031-.213c.049-.339.1-.678.171-1.009a.5.5 0 1 1 .977.215c-.067.307-.113.623-.158.938l-.032.216a.5.5 0 0 1 -.494.426z" fill="#323c6b"/><path d="m39.063 11a.5.5 0 0 1 -.461-.694 17.7 17.7 0 0 1 5.829-7.386.5.5 0 0 1 .593.806 16.7 16.7 0 0 0 -5.5 6.968.5.5 0 0 1 -.461.306z" fill="#323c6b"/><path d="m68.51 13.6-13.67 3.51-5.46-13.01a14.112 14.112 0 0 1 19.13 9.5z" fill="#fe7058"/><path d="m67 24.26a14.083 14.083 0 0 1 -11.58 6.94l-.58-14.09z" fill="#89c5cd"/><path d="m55.42 31.2a5.536 5.536 0 0 1 -.58.02 14.11 14.11 0 0 1 -5.46-27.12l5.46 13.01z" fill="#27ccbc"/><path d="m68.95 17.11a14.007 14.007 0 0 1 -1.95 7.15l-12.16-7.15 13.67-3.51a14.009 14.009 0 0 1 .44 3.51z" fill="#fcd462"/><path d="m68.51 13.6-2.92.75a14.111 14.111 0 0 0 -16.11-10.02l-.1-.23a14.112 14.112 0 0 1 19.13 9.5z" fill="#ea6453"/><path d="m67 24.26a14.091 14.091 0 0 1 -8.45 6.46 14.231 14.231 0 0 0 5.63-5.36 13.708 13.708 0 0 0 1.03-2.15z" fill="#6eaaad"/><path d="m68.95 17.11a14.007 14.007 0 0 1 -1.95 7.15l-1.79-1.05a13.832 13.832 0 0 0 .92-5 14.008 14.008 0 0 0 -.44-3.51c-.03-.12-.06-.23-.1-.35l2.92-.75a14.009 14.009 0 0 1 .44 3.51z" fill="#f7be56"/><g fill="#323c6b"><path d="m54.84 17.61a.5.5 0 0 1 -.461-.307l-5.46-13.01a.5.5 0 0 1 .266-.654 14.445 14.445 0 0 1 5.655-1.139 14.6 14.6 0 0 1 14.154 10.976.5.5 0 0 1 -.36.608l-13.67 3.51a.5.5 0 0 1 -.124.016zm-4.8-13.235 5.1 12.143 12.759-3.276a13.6 13.6 0 0 0 -13.059-9.742 13.46 13.46 0 0 0 -4.802.875z"/><path d="m55.419 31.7a.5.5 0 0 1 -.5-.479l-.58-14.09a.5.5 0 0 1 .753-.452l12.16 7.15a.5.5 0 0 1 .177.685 14.53 14.53 0 0 1 -11.99 7.186zm-.042-13.694.523 12.666a13.526 13.526 0 0 0 10.409-6.24z"/><path d="m54.84 31.72a14.609 14.609 0 0 1 -5.653-28.081.5.5 0 0 1 .654.268l5.46 13.01a.5.5 0 0 1 .039.173l.58 14.09a.5.5 0 0 1 -.448.518 6.232 6.232 0 0 1 -.632.022zm-5.724-26.957a13.61 13.61 0 0 0 5.724 25.957h.06l-.556-13.5z"/><path d="m67 24.76a.5.5 0 0 1 -.253-.069l-12.16-7.15a.5.5 0 0 1 .129-.916l13.67-3.51a.5.5 0 0 1 .608.359 14.62 14.62 0 0 1 -1.563 11.04.5.5 0 0 1 -.431.246zm-10.862-7.467 10.678 6.278a13.641 13.641 0 0 0 1.326-9.36z"/><path d="m20.333 65.857h-8.4a.5.5 0 0 1 -.5-.5v-45.136a.5.5 0 0 1 .5-.5h8.4a.5.5 0 0 1 .5.5v45.136a.5.5 0 0 1 -.5.5zm-7.9-1h7.4v-44.136h-7.4z"/><path d="m34.63 65.857h-8.4a.5.5 0 0 1 -.5-.5v-38.309a.5.5 0 0 1 .5-.5h8.4a.5.5 0 0 1 .5.5v38.309a.5.5 0 0 1 -.5.5zm-7.9-1h7.4v-37.309h-7.4z"/><path d="m48.928 65.857h-8.4a.5.5 0 0 1 -.5-.5v-29.057a.5.5 0 0 1 .5-.5h8.4a.5.5 0 0 1 .5.5v29.057a.5.5 0 0 1 -.5.5zm-7.9-1h7.4v-28.057h-7.4z"/><path d="m63.225 65.857h-8.4a.5.5 0 0 1 -.5-.5v-20.449a.5.5 0 0 1 .5-.5h8.4a.5.5 0 0 1 .5.5v20.449a.5.5 0 0 1 -.5.5zm-7.9-1h7.4v-19.449h-7.4z"/></g><path d="m58.333 58.375a.65.65 0 0 1 -.65-.65v-7.117a.65.65 0 1 1 1.3 0v7.117a.65.65 0 0 1 -.65.65z" fill="#fff"/><path d="m58.333 60.921a.65.65 0 0 1 -.65-.65v-.422a.65.65 0 0 1 1.3 0v.422a.65.65 0 0 1 -.65.65z" fill="#fff"/></g></svg>