<svg xmlns="http://www.w3.org/2000/svg" width="216.311" height="109.531" viewBox="0 0 216.311 109.531">
  <g id="ic_DapUngDayDuNghiepVu" transform="translate(-246 -4555.979)">
    <g id="Group_9585" data-name="Group 9585" transform="translate(313.684 4560.738)">
      <line id="Line_3878" data-name="Line 3878" y2="4.062" transform="translate(2.031 0)" fill="none" stroke="#f0582d" stroke-linecap="round" stroke-miterlimit="10" stroke-width="2"/>
      <line id="Line_3879" data-name="Line 3879" x2="4.062" transform="translate(0 2.031)" fill="none" stroke="#f0582d" stroke-linecap="round" stroke-miterlimit="10" stroke-width="2"/>
    </g>
    <g id="Group_9584" data-name="Group 9584" transform="translate(305.331 4569.35)">
      <line id="Line_3882" data-name="Line 3882" y2="8.124" transform="translate(4.062)" fill="none" stroke="#f0582d" stroke-linecap="round" stroke-miterlimit="10" stroke-width="2"/>
      <line id="Line_3883" data-name="Line 3883" x2="8.124" transform="translate(0 4.062)" fill="none" stroke="#f0582d" stroke-linecap="round" stroke-miterlimit="10" stroke-width="2"/>
    </g>
    <g id="Group_9586" data-name="Group 9586" transform="translate(389.331 4575.243)">
      <line id="Line_3882-2" data-name="Line 3882" y2="6.23" transform="translate(3.115)" fill="none" stroke="#f0582d" stroke-linecap="round" stroke-miterlimit="10" stroke-width="2"/>
      <line id="Line_3883-2" data-name="Line 3883" x2="6.23" transform="translate(0 3.115)" fill="none" stroke="#f0582d" stroke-linecap="round" stroke-miterlimit="10" stroke-width="2"/>
    </g>
    <g id="Group_9583" data-name="Group 9583" transform="translate(1 24)">
      <path id="Path_11102" data-name="Path 11102" d="M175.891,257.289c1.335-1.317,2.619-2.565,3.88-3.837.3-.306.481-.266.755.028.571.612,1.173,1.2,1.774,1.78a2.252,2.252,0,0,0,3.208.335,32.322,32.322,0,0,1,13.53-5.576,2.146,2.146,0,0,0,1.908-2.231c.029-.837.049-1.679,0-2.513-.04-.654.221-.812.826-.8,1.436.035,2.875.053,4.309-.006.725-.03.865.254.825.889-.048.755-.023,1.516-.008,2.274a2.2,2.2,0,0,0,1.9,2.374,32.39,32.39,0,0,1,13.632,5.633,2.223,2.223,0,0,0,3.025-.278c.059-.054.112-.114.173-.165.749-.642,1.338-1.966,2.164-1.872.782.09,1.458,1.245,2.146,1.964.628.658,1.766,1.212,1.74,2-.021.654-1.072,1.28-1.679,1.906-1.376,1.419-1.463,2.224-.314,3.872a30.941,30.941,0,0,1,5.24,12.777c.268,1.624,1.013,2.21,2.681,2.26.948.029,2.174-.414,2.771.181.65.647.2,1.894.2,2.874,0,.939.454,2.192-.209,2.733-.557.456-1.757.133-2.673.14-1.709.014-2.493.647-2.771,2.31a31.138,31.138,0,0,1-5.175,12.683c-1.234,1.792-1.16,2.513.362,4.041,1.809,1.818,1.814,1.823-.022,3.645-.759.754-1.482,1.967-2.337,2.078-.8.1-1.476-1.272-2.234-1.968a2.2,2.2,0,0,0-3.119-.283,31.834,31.834,0,0,1-13.4,5.571,2.3,2.3,0,0,0-2.1,2.59,16.728,16.728,0,0,0,.011,1.914c.088.847-.111,1.219-1.076,1.15a39.995,39.995,0,0,0-4.068-.012c-.641.019-.848-.214-.814-.831.04-.716.015-1.436.007-2.154-.02-1.679-.619-2.439-2.235-2.694a30.628,30.628,0,0,1-7.937-2.436,33.469,33.469,0,0,1-5.146-2.986,2.276,2.276,0,0,0-3.4.3c-.689.663-1.342,1.824-2.067,1.869-.855.054-1.461-1.2-2.164-1.887-.671-.66-1.846-1.255-1.816-2.058.026-.685,1.126-1.335,1.762-1.99,1.229-1.265,1.357-2.171.363-3.583a32.372,32.372,0,0,1-5.417-13.091,2.308,2.308,0,0,0-2.621-2.184c-.946-.025-2.234.416-2.743-.18-.48-.563-.18-1.812-.181-2.758s-.3-2.182.174-2.779c.509-.641,1.792-.173,2.736-.2,1.705-.057,2.328-.547,2.649-2.26a32.27,32.27,0,0,1,5.407-12.972c.986-1.384.861-2.365-.359-3.588C177.317,258.635,176.644,258.012,175.891,257.289Z" transform="translate(146.618 4288.509)" fill="#f9fafb" stroke="#f0582d" stroke-miterlimit="10" stroke-width="2"/>
      <path id="Path_11103" data-name="Path 11103" d="M180.674,281.049a23.288,23.288,0,1,1,23.263,23.341A23.217,23.217,0,0,1,180.674,281.049Z" transform="translate(146.618 4288.509)" fill="#ffe1d8" stroke="#f0582d" stroke-width="2"/>
      <path id="Path_11104" data-name="Path 11104" d="M188.462,268.526a17.258,17.258,0,0,0,1.4,1.6,2.194,2.194,0,0,0,3.115-.052,2.285,2.285,0,0,0-.023-3.133c-.422-.507-1.4-.885-1.221-1.45s1.05-.9,1.652-1.285a20.937,20.937,0,0,1,7.515-2.87c.658-.123.847.081.81.723a6.811,6.811,0,0,0,.092,1.663,2.217,2.217,0,0,0,2.3,1.843,2.3,2.3,0,0,0,2.076-2.12c.008-.08,0-.16,0-.24.081-2.085.082-2.09,2.107-1.6A20.842,20.842,0,0,1,215.7,265c.561.407.662.692.085,1.142a6.692,6.692,0,0,0-.936.923,2.231,2.231,0,0,0,.079,3.033,2.321,2.321,0,0,0,2.955.181c.1-.071.176-.162.265-.242,1.519-1.379,1.5-1.37,2.669.424a20.452,20.452,0,0,1,2.76,6.922c.306,1.415.285,1.435-1.178,1.448-1.819.016-2.75.673-2.865,2.022a2.178,2.178,0,0,0,2.047,2.446c.671.05,1.349.009,2.156.009a19.307,19.307,0,0,1-3.9,9.834c-.237.319-.418.27-.658.012-.325-.351-.662-.692-1.018-1.012a2.23,2.23,0,1,0-3.169,3.135c1.356,1.512,1.358,1.516-.357,2.615a20.924,20.924,0,0,1-7.026,2.824c-1.431.3-1.431.3-1.433-1.15,0-1.864-.705-2.839-2.09-2.9-1.443-.068-2.319.849-2.39,2.5-.077,1.792-.075,1.78-1.9,1.408a20.464,20.464,0,0,1-7.461-3.3c-.812-.552-.757-.9-.063-1.435a4.611,4.611,0,0,0,.829-.857,2.268,2.268,0,0,0-.214-3.034,2.231,2.231,0,0,0-2.94-.034c-.545.459-1.038.98-1.6,1.515a20.06,20.06,0,0,1-4.184-9.52c-.083-.49.091-.64.562-.609a12.509,12.509,0,0,0,1.436,0,2.211,2.211,0,0,0,.318-4.4,4.189,4.189,0,0,0-.592-.068c-1.86-.1-1.887-.1-1.467-1.952A20.077,20.077,0,0,1,188.462,268.526Z" transform="translate(146.618 4288.509)" fill="#f9fafb" stroke="#f0582d" stroke-width="2"/>
      <g id="Group_9582" data-name="Group 9582" transform="translate(0 1)">
        <rect id="Rectangle_6957" data-name="Rectangle 6957" width="29.41" height="19.922" transform="translate(392.913 4608.753)" stroke-width="2" stroke="#f0582d" stroke-linecap="round" stroke-linejoin="round" fill="#ffe1d8"/>
        <path id="Path_11105" data-name="Path 11105" d="M273.38,340.167H244.62l-7.733,7.733h44.224Z" transform="translate(148.618 4288.509)" fill="none" stroke="#f0582d" stroke-linecap="round" stroke-linejoin="round" stroke-width="2"/>
      </g>
      <rect id="Rectangle_6958" data-name="Rectangle 6958" width="30.264" height="25.655" rx="2.123" transform="matrix(1, -0.003, 0.003, 1, 429.966, 4554.059)" fill="#fff" stroke="#f0582d" stroke-miterlimit="10" stroke-width="2"/>
      <path id="Path_11106" data-name="Path 11106" d="M246.672,238.11l24.342-.074c.611,0,1.109.708,1.112,1.585l.01,3.6c0,.878-.49,1.591-1.1,1.593l-24.342.075c-.611,0-1.109-.709-1.112-1.586l-.01-3.6C245.567,238.825,246.06,238.112,246.672,238.11Z" transform="translate(186.459 4348.015)" fill="#fff" stroke="#f0582d" stroke-miterlimit="10" stroke-width="2"/>
      <rect id="Rectangle_6959" data-name="Rectangle 6959" width="8.404" height="5.75" transform="matrix(1, -0.003, 0.003, 1, 440.971, 4579.889)" fill="none" stroke="#f0582d" stroke-miterlimit="10" stroke-width="2"/>
      <rect id="Rectangle_6960" data-name="Rectangle 6960" width="20.171" height="15.319" transform="translate(435.028 4559.212) rotate(-0.176)" fill="#ffe1d8" stroke="#f0582d" stroke-miterlimit="10" stroke-width="2"/>
      <rect id="Rectangle_6961" data-name="Rectangle 6961" width="26.375" height="31.039" transform="translate(246 4557.191)" stroke-width="2" stroke="#f0582d" stroke-linecap="round" stroke-linejoin="round" fill="none"/>
      <rect id="Rectangle_6962" data-name="Rectangle 6962" width="10.818" height="6.451" transform="translate(253.778 4550.74)" stroke-width="2" stroke="#f0582d" stroke-linecap="round" stroke-linejoin="round" fill="none"/>
      <line id="Line_3914" data-name="Line 3914" x2="12.583" transform="translate(252.896 4565.647)" fill="none" stroke="#f0582d" stroke-linecap="round" stroke-linejoin="round" stroke-width="2"/>
      <line id="Line_3915" data-name="Line 3915" x2="12.583" transform="translate(252.896 4573.855)" fill="none" stroke="#f0582d" stroke-linecap="round" stroke-linejoin="round" stroke-width="2"/>
      <path id="Path_11107" data-name="Path 11107" d="M156.237,336.085c-2.925,0-3.7,2.463-7.667,2.505-3.967-.042-4.742-2.505-7.667-2.505-4.333,0-4.583,3.666-4.583,3.666V351h24.5v-11.25S160.57,336.085,156.237,336.085Z" transform="translate(146.618 4289.509)" fill="none" stroke="#f0582d" stroke-linecap="round" stroke-linejoin="round" stroke-width="2"/>
      <circle id="Ellipse_1964" data-name="Ellipse 1964" cx="6.702" cy="6.702" r="6.702" transform="translate(288.486 4608.427)" fill="none" stroke="#f0582d" stroke-miterlimit="10" stroke-width="2"/>
      <line id="Line_3918" data-name="Line 3918" y1="31.711" transform="translate(295.188 4570.5)" fill="none" stroke="#f0582d" stroke-linecap="round" stroke-miterlimit="10" stroke-width="2"/>
      <line id="Line_3922" data-name="Line 3922" y1="31.711" transform="translate(407.188 4570.5)" fill="none" stroke="#f0582d" stroke-linecap="round" stroke-miterlimit="10" stroke-width="2"/>
      <line id="Line_3919" data-name="Line 3919" x1="24.854" transform="translate(282.5 4569.627)" fill="none" stroke="#f0582d" stroke-linecap="round" stroke-miterlimit="10" stroke-width="2"/>
      <line id="Line_3923" data-name="Line 3923" x1="24.854" transform="translate(394.5 4569.627)" fill="none" stroke="#f0582d" stroke-linecap="round" stroke-miterlimit="10" stroke-width="2"/>
      <g id="Group_9580" data-name="Group 9580" transform="translate(146.618 4288.509)">
        <line id="Line_3920" data-name="Line 3920" y2="10.963" transform="translate(203.996 270.125)" fill="none" stroke="#f0582d" stroke-linecap="round" stroke-miterlimit="10" stroke-width="2"/>
      </g>
      <g id="Group_9581" data-name="Group 9581" transform="translate(146.618 4288.509)">
        <line id="Line_3921" data-name="Line 3921" x2="10.963" transform="translate(193.034 281.119)" fill="none" stroke="#f0582d" stroke-linecap="round" stroke-miterlimit="10" stroke-width="2"/>
      </g>
    </g>
  </g>
</svg>
