<svg xmlns="http://www.w3.org/2000/svg" width="102" height="114.871" viewBox="0 0 102 114.871">
  <g id="ic_GiaCaPhuHop" transform="translate(-953 -4833)">
    <g id="Group_9568" data-name="Group 9568" transform="translate(3.874 32.874)">
      <g id="Ellipse_1961" data-name="Ellipse 1961" transform="translate(971 4809)" fill="#fff" stroke="#cf5eff" stroke-width="2">
        <circle cx="27.126" cy="27.126" r="27.126" stroke="none"/>
        <circle cx="27.126" cy="27.126" r="26.126" fill="none"/>
      </g>
      <g id="Ellipse_1962" data-name="Ellipse 1962" transform="translate(977.125 4815.125)" fill="#f8e6ff" stroke="#cf5eff" stroke-width="2">
        <circle cx="21.001" cy="21.001" r="21.001" stroke="none"/>
        <circle cx="21.001" cy="21.001" r="20.001" fill="none"/>
      </g>
      <text id="_" data-name="$" transform="translate(998.126 4845.375)" fill="#cf5eff" font-size="26" font-family="Roboto-Regular, Roboto" letter-spacing="-0.025em"><tspan x="-7.3" y="0">$</tspan></text>
    </g>
    <rect id="Rectangle_6596" data-name="Rectangle 6596" width="96" height="66" rx="4.658" transform="translate(954 4880.871)" fill="#fff"/>
    <path id="Rectangle_6595" data-name="Rectangle 6595" d="M10,0H36a0,0,0,0,1,0,0V27a0,0,0,0,1,0,0H10A10,10,0,0,1,0,17V10A10,10,0,0,1,10,0Z" transform="translate(1015 4900.871)" fill="#f8e6ff"/>
    <path id="Rectangle_6608" data-name="Rectangle 6608" d="M0,0H87a4,4,0,0,1,4,4V52a4,4,0,0,1-4,4H0a0,0,0,0,1,0,0V0A0,0,0,0,1,0,0Z" transform="translate(954 4885.871)" fill="none" stroke="#cf5eff" stroke-linecap="round" stroke-miterlimit="10" stroke-width="1" stroke-dasharray="4 5"/>
    <rect id="Rectangle_6593" data-name="Rectangle 6593" width="96" height="66" rx="4.658" transform="translate(954 4880.871)" fill="none" stroke="#cf5eff" stroke-linecap="round" stroke-miterlimit="10" stroke-width="2"/>
    <g id="Path_11108" data-name="Path 11108" transform="translate(1018 4902.871)" fill="#fff">
      <path d="M 35 22 L 10 22 C 5.037380218505859 22 1 17.96261978149414 1 13 L 1 10 C 1 5.037380218505859 5.037380218505859 1 10 1 L 35 1 C 35.55139923095703 1 36 1.448600053787231 36 2 L 36 21 C 36 21.55139923095703 35.55139923095703 22 35 22 Z" stroke="none"/>
      <path d="M 10 2 C 5.588790893554688 2 2 5.588790893554688 2 10 L 2 13 C 2 17.41120910644531 5.588790893554688 21 10 21 L 35 21 L 35 2 L 10 2 M 10 0 L 35 0 C 36.10456848144531 0 37 0.8954296112060547 37 2 L 37 21 C 37 22.10457038879395 36.10456848144531 23 35 23 L 10 23 C 4.477149963378906 23 0 18.52285003662109 0 13 L 0 10 C 0 4.477149963378906 4.477149963378906 0 10 0 Z" stroke="none" fill="#cf5eff"/>
    </g>
    <g id="Ellipse_1928" data-name="Ellipse 1928" transform="translate(1026 4909.871)" fill="#f8e6ff" stroke="#cf5eff" stroke-width="2">
      <circle cx="4.5" cy="4.5" r="4.5" stroke="none"/>
      <circle cx="4.5" cy="4.5" r="3.5" fill="none"/>
    </g>
    <circle id="Ellipse_1909" data-name="Ellipse 1909" cx="3.139" cy="3.139" r="3.139" transform="translate(961.957 4929.211)" fill="#f5deff"/>
    <rect id="Rectangle_6609" data-name="Rectangle 6609" width="25" height="5" rx="2.5" transform="translate(971 4929.871)" fill="#f5deff"/>
    <g id="Group_9569" data-name="Group 9569" transform="translate(-2 4525)">
      <line id="Line_3882" data-name="Line 3882" y2="8" transform="translate(986 309)" fill="none" stroke="#cf5eff" stroke-linecap="round" stroke-miterlimit="10" stroke-width="2"/>
      <line id="Line_3883" data-name="Line 3883" x2="8" transform="translate(982 313)" fill="none" stroke="#cf5eff" stroke-linecap="round" stroke-miterlimit="10" stroke-width="2"/>
    </g>
    <g id="Group_9570" data-name="Group 9570" transform="translate(-8 4533.871)">
      <line id="Line_3882-2" data-name="Line 3882" y2="4.129" transform="translate(984.065 309)" fill="none" stroke="#cf5eff" stroke-linecap="round" stroke-miterlimit="10" stroke-width="1.5"/>
      <line id="Line_3883-2" data-name="Line 3883" x2="4.129" transform="translate(982 311.065)" fill="none" stroke="#cf5eff" stroke-linecap="round" stroke-miterlimit="10" stroke-width="1.5"/>
    </g>
  </g>
</svg>
