<svg xmlns="http://www.w3.org/2000/svg" width="177.353" height="119.96" viewBox="0 0 177.353 119.96">
  <g id="ic_NhieuTinhNangThongMinh" transform="translate(-588.819 -4545.55)">
    <rect id="Rectangle_6956" data-name="Rectangle 6956" width="50.273" height="68.227" rx="4" transform="translate(610.619 4575.429)" fill="#e8f6fe"/>
    <g id="Group_9578" data-name="Group 9578" transform="translate(620.336 4593.226)">
      <g id="Ellipse_1961" data-name="Ellipse 1961" transform="translate(0 0)" fill="none" stroke="#00a4ff" stroke-width="2">
        <ellipse cx="15.419" cy="15.419" rx="15.419" ry="15.419" stroke="none"/>
        <ellipse cx="15.419" cy="15.419" rx="14.419" ry="14.419" fill="none"/>
      </g>
      <g id="Ellipse_1962" data-name="Ellipse 1962" transform="translate(3.482 3.482)" fill="none" stroke="#00a4ff" stroke-width="2">
        <ellipse cx="11.937" cy="11.937" rx="11.937" ry="11.937" stroke="none"/>
        <ellipse cx="11.937" cy="11.937" rx="10.937" ry="10.937" fill="none"/>
      </g>
      <text id="_" data-name="$" transform="translate(15.542 20.466)" fill="#00a4ff" font-size="14" font-family="Roboto-Medium, Roboto" font-weight="500" letter-spacing="-0.025em"><tspan x="-3.979" y="0">$</tspan></text>
    </g>
    <g id="Group_9315" data-name="Group 9315" transform="translate(758.832 4588.639)">
      <line id="Line_3876" data-name="Line 3876" y2="2.982" transform="translate(1.491)" fill="none" stroke="#00a4ff" stroke-linecap="round" stroke-miterlimit="10" stroke-width="2"/>
      <line id="Line_3877" data-name="Line 3877" x2="2.982" transform="translate(0 1.491)" fill="none" stroke="#00a4ff" stroke-linecap="round" stroke-miterlimit="10" stroke-width="2"/>
    </g>
    <g id="Group_9316" data-name="Group 9316" transform="translate(589.819 4560.713)">
      <line id="Line_3878" data-name="Line 3878" y2="2.982" transform="translate(1.491 0)" fill="none" stroke="#00a4ff" stroke-linecap="round" stroke-miterlimit="10" stroke-width="2"/>
      <line id="Line_3879" data-name="Line 3879" x2="2.982" transform="translate(0 1.491)" fill="none" stroke="#00a4ff" stroke-linecap="round" stroke-miterlimit="10" stroke-width="2"/>
    </g>
    <g id="Group_9317" data-name="Group 9317" transform="translate(749.141 4596.093)">
      <line id="Line_3880" data-name="Line 3880" y2="4.473" transform="translate(2.236)" fill="none" stroke="#00a4ff" stroke-linecap="round" stroke-miterlimit="10" stroke-width="2"/>
      <line id="Line_3881" data-name="Line 3881" x2="4.473" transform="translate(0 2.236)" fill="none" stroke="#00a4ff" stroke-linecap="round" stroke-miterlimit="10" stroke-width="2"/>
    </g>
    <g id="Group_9318" data-name="Group 9318" transform="translate(594.291 4546.55)">
      <line id="Line_3882" data-name="Line 3882" y2="5.963" transform="translate(2.982)" fill="none" stroke="#00a4ff" stroke-linecap="round" stroke-miterlimit="10" stroke-width="2"/>
      <line id="Line_3883" data-name="Line 3883" x2="5.963" transform="translate(0 2.982)" fill="none" stroke="#00a4ff" stroke-linecap="round" stroke-miterlimit="10" stroke-width="2"/>
    </g>
    <g id="Group_9319" data-name="Group 9319" transform="translate(739.451 4588.639)">
      <line id="Line_3884" data-name="Line 3884" y2="5.963" transform="translate(2.982)" fill="none" stroke="#00a4ff" stroke-linecap="round" stroke-miterlimit="10" stroke-width="2"/>
      <line id="Line_3885" data-name="Line 3885" x2="5.963" transform="translate(0 2.982)" fill="none" stroke="#00a4ff" stroke-linecap="round" stroke-miterlimit="10" stroke-width="2"/>
    </g>
    <g id="Group_9320" data-name="Group 9320" transform="translate(662.775 4588.955)">
      <path id="Path_11022" data-name="Path 11022" d="M1048.48,345.2h12.183a3.094,3.094,0,0,0,3.094-3.094V311.094a3.094,3.094,0,0,0-3.094-3.094h-59.569A3.094,3.094,0,0,0,998,311.094v28.124" transform="translate(-998 -308)" fill="none" stroke="#00a4ff" stroke-linecap="round" stroke-miterlimit="10" stroke-width="2"/>
      <rect id="Rectangle_6600" data-name="Rectangle 6600" width="19.926" height="3.985" rx="1.993" transform="translate(5.978 5.978)" fill="#00a4ff" opacity="0.2"/>
      <line id="Line_3886" data-name="Line 3886" x2="11.292" transform="translate(6.642 12.62)" fill="none" stroke="#00a4ff" stroke-linecap="round" stroke-miterlimit="10" stroke-width="2"/>
      <rect id="Rectangle_6601" data-name="Rectangle 6601" width="54.465" height="3.985" rx="1.993" transform="translate(5.978 27.897)" fill="#00a4ff" opacity="0.2"/>
      <text id="Bạc" transform="translate(47.07 12.718)" fill="#00a4ff" font-size="6" font-family="Roboto-Bold, Roboto" font-weight="700"><tspan x="0" y="0">Bạc</tspan></text>
      <rect id="Rectangle_6602" data-name="Rectangle 6602" width="16.605" height="11.292" rx="4.667" transform="translate(43.838 5.314)" fill="none" stroke="#00a4ff" stroke-linecap="round" stroke-miterlimit="10" stroke-width="2"/>
    </g>
    <g id="Group_9321" data-name="Group 9321" transform="translate(712.992 4609.006)">
      <path id="Path_11023" data-name="Path 11023" d="M1075,382.744h48.708a3.473,3.473,0,0,0,3.472-3.472v-34.8a3.473,3.473,0,0,0-3.472-3.472H1091.4" transform="translate(-1075 -341)" fill="none" stroke="#00a4ff" stroke-linecap="round" stroke-miterlimit="10" stroke-width="2"/>
      <path id="Path_11024" data-name="Path 11024" d="M1116.38,383h-41.068v4.473h41.068a1.935,1.935,0,0,0,1.934-1.934v-.6A1.935,1.935,0,0,0,1116.38,383Z" transform="translate(-1075.079 -351.692)" fill="#00a4ff" opacity="0.2"/>
      <text id="Vàng" transform="translate(25.123 14.418)" fill="#00a4ff" font-size="7" font-family="Roboto-Bold, Roboto" font-weight="700"><tspan x="0" y="0">Vàng</tspan></text>
      <rect id="Rectangle_6603" data-name="Rectangle 6603" width="24.599" height="12.672" rx="4.667" transform="translate(21.618 5.963)" fill="none" stroke="#00a4ff" stroke-linecap="round" stroke-miterlimit="10" stroke-width="2"/>
    </g>
    <rect id="Rectangle_6604" data-name="Rectangle 6604" width="73.798" height="41.744" rx="4.658" transform="translate(662.687 4619.442)" fill="#fff" stroke="#00a4ff" stroke-linecap="round" stroke-miterlimit="10" stroke-width="2"/>
    <rect id="Rectangle_6605" data-name="Rectangle 6605" width="22.363" height="4.473" rx="2.236" transform="translate(669.396 4626.151)" fill="#00a4ff" opacity="0.2"/>
    <line id="Line_3887" data-name="Line 3887" x2="12.672" transform="translate(670.141 4633.605)" fill="none" stroke="#00a4ff" stroke-linecap="round" stroke-miterlimit="10" stroke-width="2"/>
    <rect id="Rectangle_6606" data-name="Rectangle 6606" width="61.126" height="4.473" rx="2.236" transform="translate(669.396 4650.75)" fill="#00a4ff" opacity="0.2"/>
    <text id="Vip" transform="translate(716.136 4633.86)" fill="#00a4ff" font-size="7" font-family="Roboto-Bold, Roboto" font-weight="700"><tspan x="0" y="0">Vip</tspan></text>
    <rect id="Rectangle_6607" data-name="Rectangle 6607" width="18.636" height="12.672" rx="4.667" transform="translate(711.886 4625.405)" fill="none" stroke="#00a4ff" stroke-linecap="round" stroke-miterlimit="10" stroke-width="2"/>
    <path id="Path_1441" data-name="Path 1441" d="M37.15,89.682a6.922,6.922,0,1,1-6.922-6.922A6.943,6.943,0,0,1,37.15,89.682Zm18-13.845a2.847,2.847,0,0,1-2.769,2.769H8.076a2.847,2.847,0,0,1-2.769-2.769V14.921a2.847,2.847,0,0,1,2.769-2.769h44.3a2.847,2.847,0,0,1,2.769,2.769V75.837ZM63.455,1.076A11.153,11.153,0,0,0,52.379-10H8.076A11.153,11.153,0,0,0-3,1.076V89.682A11.153,11.153,0,0,0,8.076,100.758h44.3A11.153,11.153,0,0,0,63.455,89.682Z" transform="translate(605.539 4563.752)" fill="#fff" stroke="#00a4ff" stroke-width="2"/>
    <line id="Line_51" data-name="Line 51" x2="19.601" transform="translate(626.428 4565.57)" fill="none" stroke="#00a4ff" stroke-linecap="round" stroke-width="2"/>
  </g>
</svg>
