<svg xmlns="http://www.w3.org/2000/svg" width="159.304" height="84" viewBox="0 0 159.304 84">
  <g id="ic_SanPhamChatLuongCao" transform="translate(-274.718 -4862)">
    <g id="Group_9566" data-name="Group 9566" transform="translate(11.022 24)">
      <g id="Group_9564" data-name="Group 9564" transform="translate(53 -18)">
        <rect id="Rectangle_6604" data-name="Rectangle 6604" width="99" height="56" rx="2" transform="translate(270 4864)" fill="#edecff" stroke="#665eff" stroke-linecap="round" stroke-miterlimit="10" stroke-width="2"/>
        <rect id="Rectangle_6605" data-name="Rectangle 6605" width="30" height="6" rx="2.595" transform="translate(285 4873)" fill="#665eff" opacity="0.2"/>
        <line id="Line_3887" data-name="Line 3887" x2="17" transform="translate(287.5 4883)" fill="none" stroke="#665eff" stroke-linecap="round" stroke-miterlimit="10" stroke-width="2"/>
        <rect id="Rectangle_6606" data-name="Rectangle 6606" width="70" height="6" rx="2.595" transform="translate(285 4906)" fill="#665eff" opacity="0.2"/>
        <text id="ISO" transform="translate(344 4884)" fill="#665eff" font-size="14" font-family="Roboto-Medium, Roboto" font-weight="500" letter-spacing="-0.025em"><tspan x="-10.683" y="0">ISO</tspan></text>
      </g>
      <g id="Group_9565" data-name="Group 9565" transform="translate(33.668 12.609)">
        <path id="Path_11079" data-name="Path 11079" d="M0,0V15.059l4.293-4.831,4.293,4.831V0Z" transform="translate(284.461 4842.439) rotate(20)" fill="#edecff" stroke="#665eff" stroke-linecap="round" stroke-linejoin="round" stroke-width="2"/>
        <path id="Path_11080" data-name="Path 11080" d="M0,0V15.059l4.293-4.831,4.293,4.831V0Z" transform="translate(287.748 4845.375) rotate(-20)" fill="#edecff" stroke="#665eff" stroke-linecap="round" stroke-linejoin="round" stroke-width="2"/>
        <g id="Ellipse_1959" data-name="Ellipse 1959" transform="translate(280.336 4828.04)" fill="#edecff" stroke="#665eff" stroke-width="2">
          <circle cx="9.788" cy="9.788" r="9.788" stroke="none"/>
          <circle cx="9.788" cy="9.788" r="8.788" fill="none"/>
        </g>
        <g id="Ellipse_1960" data-name="Ellipse 1960" transform="translate(285.23 4832.934)" fill="#edecff" stroke="#665eff" stroke-width="2">
          <circle cx="4.894" cy="4.894" r="4.894" stroke="none"/>
          <circle cx="4.894" cy="4.894" r="3.894" fill="none"/>
        </g>
      </g>
    </g>
    <g id="Group_9316" data-name="Group 9316" transform="translate(-677.978 4544)">
      <line id="Line_3878" data-name="Line 3878" y2="4" transform="translate(978 328)" fill="none" stroke="#665eff" stroke-linecap="round" stroke-miterlimit="10" stroke-width="2"/>
      <line id="Line_3879" data-name="Line 3879" x2="4" transform="translate(976 330)" fill="none" stroke="#665eff" stroke-linecap="round" stroke-miterlimit="10" stroke-width="2"/>
    </g>
    <g id="Group_9317" data-name="Group 9317" transform="translate(-688.978 4520)">
      <line id="Line_3880" data-name="Line 3880" y2="6" transform="translate(1100 414)" fill="none" stroke="#665eff" stroke-linecap="round" stroke-miterlimit="10" stroke-width="2"/>
      <line id="Line_3881" data-name="Line 3881" x2="6" transform="translate(1097 417)" fill="none" stroke="#665eff" stroke-linecap="round" stroke-miterlimit="10" stroke-width="2"/>
    </g>
    <g id="Group_9318" data-name="Group 9318" transform="translate(-671.978 4554)">
      <line id="Line_3882" data-name="Line 3882" y2="8" transform="translate(986 309)" fill="none" stroke="#665eff" stroke-linecap="round" stroke-miterlimit="10" stroke-width="2"/>
      <line id="Line_3883" data-name="Line 3883" x2="8" transform="translate(982 313)" fill="none" stroke="#665eff" stroke-linecap="round" stroke-miterlimit="10" stroke-width="2"/>
    </g>
    <g id="Group_9319" data-name="Group 9319" transform="translate(-688.978 4533)">
      <line id="Line_3884" data-name="Line 3884" y2="8" transform="translate(1088 404)" fill="none" stroke="#665eff" stroke-linecap="round" stroke-miterlimit="10" stroke-width="2"/>
      <line id="Line_3885" data-name="Line 3885" x2="8" transform="translate(1084 408)" fill="none" stroke="#665eff" stroke-linecap="round" stroke-miterlimit="10" stroke-width="2"/>
    </g>
    <g id="Group_9562" data-name="Group 9562" transform="translate(16.022 24)">
      <rect id="Rectangle_6604-2" data-name="Rectangle 6604" width="99" height="56" rx="2" transform="translate(270 4864)" fill="#fff" stroke="#665eff" stroke-linecap="round" stroke-miterlimit="10" stroke-width="2"/>
      <rect id="Rectangle_6605-2" data-name="Rectangle 6605" width="30" height="6" rx="2.595" transform="translate(285 4873)" fill="#665eff" opacity="0.2"/>
      <line id="Line_3887-2" data-name="Line 3887" x2="17" transform="translate(287.5 4883)" fill="none" stroke="#665eff" stroke-linecap="round" stroke-miterlimit="10" stroke-width="2"/>
      <rect id="Rectangle_6606-2" data-name="Rectangle 6606" width="70" height="6" rx="2.595" transform="translate(285 4906)" fill="#665eff" opacity="0.2"/>
      <text id="CMMi" transform="translate(339 4884)" fill="#665eff" font-size="14" font-family="Roboto-Medium, Roboto" font-weight="500" letter-spacing="-0.025em"><tspan x="-18.089" y="0">CMMi</tspan></text>
    </g>
    <g id="Group_9563" data-name="Group 9563" transform="translate(-3.31 54.609)">
      <path id="Path_11079-2" data-name="Path 11079" d="M0,0V15.059l4.293-4.831,4.293,4.831V0Z" transform="translate(284.461 4842.439) rotate(20)" fill="#fff" stroke="#665eff" stroke-linecap="round" stroke-linejoin="round" stroke-width="2"/>
      <path id="Path_11080-2" data-name="Path 11080" d="M0,0V15.059l4.293-4.831,4.293,4.831V0Z" transform="translate(287.748 4845.375) rotate(-20)" fill="#fff" stroke="#665eff" stroke-linecap="round" stroke-linejoin="round" stroke-width="2"/>
      <g id="Ellipse_1959-2" data-name="Ellipse 1959" transform="translate(280.336 4828.04)" fill="#fff" stroke="#665eff" stroke-width="2">
        <circle cx="9.788" cy="9.788" r="9.788" stroke="none"/>
        <circle cx="9.788" cy="9.788" r="8.788" fill="none"/>
      </g>
      <g id="Ellipse_1960-2" data-name="Ellipse 1960" transform="translate(285.23 4832.934)" fill="#fff" stroke="#665eff" stroke-width="2">
        <circle cx="4.894" cy="4.894" r="4.894" stroke="none"/>
        <circle cx="4.894" cy="4.894" r="3.894" fill="none"/>
      </g>
    </g>
  </g>
</svg>
