<svg xmlns="http://www.w3.org/2000/svg" width="139" height="94" viewBox="0 0 139 94">
  <g id="ic_TrienKhaiDeDangNhanhChong" transform="translate(-609 -4864)">
    <g id="Group_9316" data-name="Group 9316" transform="translate(-366 4551)">
      <line id="Line_3878" data-name="Line 3878" y2="4" transform="translate(978 328)" fill="none" stroke="#065bdb" stroke-linecap="round" stroke-miterlimit="10" stroke-width="2"/>
      <line id="Line_3879" data-name="Line 3879" x2="4" transform="translate(976 330)" fill="none" stroke="#065bdb" stroke-linecap="round" stroke-miterlimit="10" stroke-width="2"/>
    </g>
    <g id="Group_9571" data-name="Group 9571" transform="translate(-243 4625)">
      <line id="Line_3878-2" data-name="Line 3878" y2="4" transform="translate(978 328)" fill="none" stroke="#065bdb" stroke-linecap="round" stroke-miterlimit="10" stroke-width="2"/>
      <line id="Line_3879-2" data-name="Line 3879" x2="4" transform="translate(976 330)" fill="none" stroke="#065bdb" stroke-linecap="round" stroke-miterlimit="10" stroke-width="2"/>
    </g>
    <g id="Group_9318" data-name="Group 9318" transform="translate(-367 4556)">
      <line id="Line_3882" data-name="Line 3882" y2="8" transform="translate(986 309)" fill="none" stroke="#065bdb" stroke-linecap="round" stroke-miterlimit="10" stroke-width="2"/>
      <line id="Line_3883" data-name="Line 3883" x2="8" transform="translate(982 313)" fill="none" stroke="#065bdb" stroke-linecap="round" stroke-miterlimit="10" stroke-width="2"/>
    </g>
    <g id="Group_9572" data-name="Group 9572" transform="translate(-243 4631)">
      <line id="Line_3882-2" data-name="Line 3882" y2="8" transform="translate(986 309)" fill="none" stroke="#065bdb" stroke-linecap="round" stroke-miterlimit="10" stroke-width="2"/>
      <line id="Line_3883-2" data-name="Line 3883" x2="8" transform="translate(982 313)" fill="none" stroke="#065bdb" stroke-linecap="round" stroke-miterlimit="10" stroke-width="2"/>
    </g>
    <rect id="Rectangle_6604" data-name="Rectangle 6604" width="105.7" height="73.741" rx="4.658" transform="translate(623.318 4876.129)" fill="#fff" stroke="#065bdb" stroke-linecap="round" stroke-miterlimit="10" stroke-width="2"/>
    <g id="Ellipse_1963" data-name="Ellipse 1963" transform="translate(717.336 4909)" fill="none" stroke="#065bdb" stroke-width="2">
      <circle cx="4" cy="4" r="4" stroke="none"/>
      <circle cx="4" cy="4" r="3" fill="none"/>
    </g>
    <g id="Rectangle_6955" data-name="Rectangle 6955" transform="translate(629 4882)" fill="#e5efff" stroke="#065bdb" stroke-width="2">
      <rect width="85.336" height="62" stroke="none"/>
      <rect x="1" y="1" width="83.336" height="60" fill="none"/>
    </g>
    <g id="Group_9579" data-name="Group 9579" transform="translate(485.746 4619.972)">
      <path id="Path_11096" data-name="Path 11096" d="M196.343,273.071q1.286,0,2.571,0a2.84,2.84,0,0,1,.649,5.609c-.311.068-.413.178-.38.48.036.329-.13.75.065.967.174.194.592.167.9.239a16.957,16.957,0,0,1,5.32,2.255c.2.127.292.126.456-.044a12,12,0,0,1,1.331-1.278,2.875,2.875,0,0,1,3.7,4.4c-.278.294-.558.588-.857.86-.173.158-.152.265-.026.441a16.954,16.954,0,0,1-9.438,26.358c-6.521,1.583-12.138-.115-16.819-4.919a1.076,1.076,0,0,1-.3-1.113.987.987,0,0,1,.812-.717,1.061,1.061,0,0,1,1.021.377,15.231,15.231,0,0,0,3.733,2.956,14.9,14.9,0,0,0,17.674-2.4,14.888,14.888,0,0,0,1.183-19.882c-.279-.356-.6-.687-.481-1.2a1.221,1.221,0,0,1,.351-.607q.836-.83,1.664-1.669a.746.746,0,1,0-1.036-1.056c-.585.577-1.163,1.16-1.746,1.739a1.039,1.039,0,0,1-1.5.128,14.769,14.769,0,0,0-7.009-2.807c-.817-.106-1.115-.461-1.116-1.282q0-1.536,0-3.071a1.062,1.062,0,0,1,1.193-1.181c.274,0,.548.008.821,0a.767.767,0,0,0,.757-.746.749.749,0,0,0-.759-.74q-2.75-.009-5.5,0a.727.727,0,0,0-.756.736.741.741,0,0,0,.745.75c.309.011.619,0,.928,0a1.026,1.026,0,0,1,1.077,1.039q.016,1.714,0,3.428a1.023,1.023,0,0,1-1,1.05,14.841,14.841,0,0,0-7.619,3.227c-.417.337-.811.7-1.192,1.076a1.064,1.064,0,1,1-1.5-1.493,16.751,16.751,0,0,1,8.795-4.69c.342-.067.45-.2.414-.53a3.556,3.556,0,0,0-.031-.884c-.117-.29-.517-.194-.783-.3a2.9,2.9,0,0,1-1.733-3.22,2.836,2.836,0,0,1,2.772-2.278C194.581,273.069,195.462,273.071,196.343,273.071Z" transform="translate(-9.001)" fill="#065bdb"/>
      <path id="Path_11097" data-name="Path 11097" d="M213.693,311.647a12.508,12.508,0,0,1-10.125,12.281,12.318,12.318,0,0,1-10.985-3.131,1.575,1.575,0,0,1-.568-.759,1.07,1.07,0,0,1,.491-1.2,1.033,1.033,0,0,1,1.279.178,10.762,10.762,0,0,0,2.8,2,10.434,10.434,0,1,0-1.818-17.616c-.329.254-.632.542-.938.824a1.062,1.062,0,1,1-1.467-1.528,12.4,12.4,0,0,1,7.282-3.5,12.535,12.535,0,0,1,13.827,10.1A12.7,12.7,0,0,1,213.693,311.647Z" transform="translate(-13.808 -14.703)" fill="#065bdb"/>
      <path id="Path_11098" data-name="Path 11098" d="M178.086,326.934q-1.748,0-3.5,0a1.07,1.07,0,1,1,0-2.125q3.514,0,7.028,0a1.07,1.07,0,1,1,0,2.125Q179.852,326.936,178.086,326.934Z" transform="translate(-3.311 -29.218)" fill="#065bdb"/>
      <path id="Path_11099" data-name="Path 11099" d="M172.258,338.679c-1.226,0-2.452.008-3.678,0a1.031,1.031,0,0,1-1.035-.9,1.053,1.053,0,0,1,.7-1.15,1.2,1.2,0,0,1,.421-.049q3.571,0,7.143,0a1.054,1.054,0,1,1,.016,2.1C174.639,338.685,173.449,338.68,172.258,338.679Z" transform="translate(-0.003 -35.862)" fill="#065bdb"/>
      <path id="Path_11100" data-name="Path 11100" d="M172.242,315.195c-1.178,0-2.356,0-3.534,0a1.049,1.049,0,0,1-1.178-1.047,1.069,1.069,0,0,1,1.187-1.05q3.57,0,7.14,0a1.031,1.031,0,0,1,1.035.721,1.06,1.06,0,0,1-.375,1.177,1.11,1.11,0,0,1-.7.2C174.622,315.192,173.432,315.194,172.242,315.195Z" transform="translate(0 -22.604)" fill="#065bdb"/>
      <path id="Path_11101" data-name="Path 11101" d="M214.128,315.661a1.063,1.063,0,1,0-1.487-1.5c-.8.8-1.6,1.593-2.4,2.4a.359.359,0,0,1-.481.1,3.414,3.414,0,0,0-1.844-.262,3.559,3.559,0,1,0,3.725,2.146.386.386,0,0,1,.108-.513C212.553,317.25,213.34,316.455,214.128,315.661Zm-5.768,5.7a1.437,1.437,0,1,1,1.455-1.445A1.445,1.445,0,0,1,208.361,321.363Z" transform="translate(-21.053 -22.983)" fill="#065bdb"/>
    </g>
  </g>
</svg>
