<svg xmlns="http://www.w3.org/2000/svg" width="110.75" height="102.75" viewBox="0 0 110.75 102.75">
  <g id="ic_UngDungCongNghe" transform="translate(-949.25 -4559)">
    <g id="Group_9587" data-name="Group 9587">
      <path id="Path_11109" data-name="Path 11109" d="M60.863,4557.435l-1.885-2.941-4.525-2.187H51.361l-1.961,2.489v94.124l1.584,2.112,2.489.679h2.489l2.715-1.886,2.036-4.148,1.659.3,2.715.83,4.085-.573,3.433-1.75,2.987-3.364,1.854-4.6v-3.982l-.961-3.3,2.54-.412,3.913-2.025,3.021-2.575,2.815-4.154,1.236-4.428.137-3.57-.687-3.364-1.476-3.124-2.575-3.158-1.991-1.819,2.334-1.82,2.334-3.124,1.613-4.051.652-3.57-.412-4.154-1.407-3.913-2.163-3.3-3.158-2.78-3.879-1.957-3.707-.858.309-3.124-.515-2.986-1.922-3.467-2.712-2.369-2.849-1.408-3.364-.446-2.472.446Z" transform="translate(961 8)" fill="#e1f9fc"/>
      <g id="Group_9574" data-name="Group 9574" transform="translate(69 4251)">
        <line id="Line_3882" data-name="Line 3882" y2="8" transform="translate(986 309)" fill="none" stroke="#00b6cb" stroke-linecap="round" stroke-miterlimit="10" stroke-width="2"/>
        <line id="Line_3883" data-name="Line 3883" x2="8" transform="translate(982 313)" fill="none" stroke="#00b6cb" stroke-linecap="round" stroke-miterlimit="10" stroke-width="2"/>
      </g>
      <g id="Group_9576" data-name="Group 9576" transform="translate(-26 4339)">
        <line id="Line_3882-2" data-name="Line 3882" y2="8" transform="translate(986 309)" fill="none" stroke="#00b6cb" stroke-linecap="round" stroke-miterlimit="10" stroke-width="2"/>
        <line id="Line_3883-2" data-name="Line 3883" x2="8" transform="translate(982 313)" fill="none" stroke="#00b6cb" stroke-linecap="round" stroke-miterlimit="10" stroke-width="2"/>
      </g>
      <line id="Line_3882-3" data-name="Line 3882" y2="4.129" transform="translate(1047.065 4568.871)" fill="none" stroke="#00b6cb" stroke-linecap="round" stroke-miterlimit="10" stroke-width="1.5"/>
      <line id="Line_3883-3" data-name="Line 3883" x2="4.129" transform="translate(1045 4570.936)" fill="none" stroke="#00b6cb" stroke-linecap="round" stroke-miterlimit="10" stroke-width="1.5"/>
      <g id="Group_9577" data-name="Group 9577" transform="translate(-32 4347.871)">
        <line id="Line_3882-4" data-name="Line 3882" y2="4.129" transform="translate(984.065 309)" fill="none" stroke="#00b6cb" stroke-linecap="round" stroke-miterlimit="10" stroke-width="1.5"/>
        <line id="Line_3883-4" data-name="Line 3883" x2="4.129" transform="translate(982 311.065)" fill="none" stroke="#00b6cb" stroke-linecap="round" stroke-miterlimit="10" stroke-width="1.5"/>
      </g>
      <path id="Path_11081" data-name="Path 11081" d="M34.4,6.916a27.107,27.107,0,1,0,0,54.215" transform="translate(970.021 4576.371)" fill="none" stroke="#00b6cb" stroke-miterlimit="10" stroke-width="2"/>
      <path id="Path_11082" data-name="Path 11082" d="M13.525,4.768,13.6,9.884V89.365c0,2.344,0,4.682-.016,7.026a2.159,2.159,0,0,0,.095.78,1.986,1.986,0,0,0,.558.732,7.731,7.731,0,0,0,3,1.838c2.307.69,4.256-.516,5.646-2.3a9.921,9.921,0,0,0,2.128-5.162,8.183,8.183,0,0,0-1.7-5.583" transform="translate(996.866 4559.998)" fill="none" stroke="#00b6cb" stroke-linecap="round" stroke-linejoin="round" stroke-miterlimit="10" stroke-width="2"/>
      <path id="Path_11083" data-name="Path 11083" d="M16.216,32.4c4.314,2.16,8.929,1.1,12.569-2.056a11.958,11.958,0,0,0,3.455-12.92" transform="translate(1005.545 4621.206)" fill="none" stroke="#00b6cb" stroke-linecap="round" stroke-linejoin="round" stroke-miterlimit="10" stroke-width="2"/>
      <path id="Path_11084" data-name="Path 11084" d="M17.773,43.156c9.739,1.211,18.3-6.278,18.6-15.391.29-8.607-6.879-16.37-16.128-16.623" transform="translate(1014.745 4594.404)" fill="none" stroke="#00b6cb" stroke-linecap="round" stroke-linejoin="round" stroke-miterlimit="10" stroke-width="2"/>
      <path id="Path_11085" data-name="Path 11085" d="M22.173,9.7a6.858,6.858,0,0,0-2.8,3.213,5.744,5.744,0,0,0,0,4.981" transform="translate(1019.484 4588.268)" fill="none" stroke="#00b6cb" stroke-linecap="round" stroke-linejoin="round" stroke-miterlimit="10" stroke-width="2"/>
      <path id="Path_11086" data-name="Path 11086" d="M26.9,35.18A16.4,16.4,0,0,0,18.586,6.126" transform="translate(1018.214 4573)" fill="none" stroke="#00b6cb" stroke-linecap="round" stroke-linejoin="round" stroke-miterlimit="10" stroke-width="2"/>
      <path id="Path_11087" data-name="Path 11087" d="M14.789,6.941A12.135,12.135,0,0,1,30.427,5.867a12.2,12.2,0,0,1,1.891,16.955" transform="translate(1002.012 4561.819)" fill="none" stroke="#00b6cb" stroke-linecap="round" stroke-linejoin="round" stroke-miterlimit="10" stroke-width="2"/>
      <path id="Path_11088" data-name="Path 11088" d="M22.581,5.783C16.745,7.916,14.154,14.3,16.245,19.03c1.675,3.8,6.21,6.157,10.945,5.351" transform="translate(1005.165 4571.536)" fill="none" stroke="#00b6cb" stroke-linecap="round" stroke-linejoin="round" stroke-miterlimit="10" stroke-width="2"/>
      <path id="Path_11089" data-name="Path 11089" d="M14.664,5.954a6.617,6.617,0,0,1,3.129.827A5.055,5.055,0,0,1,20.454,9.9" transform="translate(1001.479 4572.266)" fill="none" stroke="#00b6cb" stroke-linecap="round" stroke-linejoin="round" stroke-miterlimit="10" stroke-width="2"/>
      <path id="Path_11090" data-name="Path 11090" d="M24.243,11.037a7.474,7.474,0,0,0-6.668,13.089" transform="translate(1001.527 4592.696)" fill="none" stroke="#00b6cb" stroke-linecap="round" stroke-linejoin="round" stroke-miterlimit="10" stroke-width="2"/>
      <path id="Path_11091" data-name="Path 11091" d="M17.1,12.439A7.709,7.709,0,0,0,20.97,19.76a8.163,8.163,0,0,0,7.574-.079" transform="translate(1011.796 4599.938)" fill="none" stroke="#00b6cb" stroke-linecap="round" stroke-linejoin="round" stroke-miterlimit="10" stroke-width="2"/>
      <path id="Path_11092" data-name="Path 11092" d="M16.273,18.088a8.008,8.008,0,0,1,2.555-3.044c1.87-1.338,2.8-1.543,3.541-1.553" transform="translate(1008.344 4604.739)" fill="none" stroke="#00b6cb" stroke-linecap="round" stroke-linejoin="round" stroke-miterlimit="10" stroke-width="2"/>
      <path id="Path_11093" data-name="Path 11093" d="M23.508,15.747a6.74,6.74,0,0,0-6.663,10.371" transform="translate(1006.129 4613.749)" fill="none" stroke="#00b6cb" stroke-linecap="round" stroke-linejoin="round" stroke-miterlimit="10" stroke-width="2"/>
      <path id="Path_11094" data-name="Path 11094" d="M24.96,7.525c-.569-.906-2.3-3.745-5.222-4.577-1.127-.321-3.013-.859-4.524.248-1.285.932-1.638,2.753-1.638,4.627" transform="translate(996.816 4557.663)" fill="none" stroke="#00b6cb" stroke-linecap="round" stroke-linejoin="round" stroke-miterlimit="10" stroke-width="2"/>
      <path id="Path_11095" data-name="Path 11095" d="M51.613,2.532H45.867v9.117a2.719,2.719,0,0,1-1.9,2.591l-4.1,1.275a2.706,2.706,0,0,1-3.06-1.074L33.373,9.327a2.716,2.716,0,0,0-3.566-.864l-5.067,2.8a2.715,2.715,0,0,0-1.106,3.608L26.146,19.8a2.722,2.722,0,0,1-.4,3.044L23.07,25.823a2.718,2.718,0,0,1-3.1.674L14.5,24.122a2.712,2.712,0,0,0-3.387,1.064l-2.971,4.8a2.714,2.714,0,0,0,.69,3.608l5,3.708a2.7,2.7,0,0,1,1,2.9l-1.09,3.95a2.7,2.7,0,0,1-2.486,1.991l-5.983.284a2.707,2.707,0,0,0-2.586,2.707v5.683a2.716,2.716,0,0,0,2.5,2.707l5.9.464a2.714,2.714,0,0,1,2.4,1.965l1.154,4.1a2.707,2.707,0,0,1-.943,2.881L8.681,70.826a2.71,2.71,0,0,0-.7,3.476l2.728,4.83a2.7,2.7,0,0,0,3.566,1.1l5.141-2.549a2.7,2.7,0,0,1,3.171.558L25.7,81.513a2.71,2.71,0,0,1,.49,3.029L23.6,90.025a2.714,2.714,0,0,0,1.154,3.545l5.125,2.792a2.715,2.715,0,0,0,3.629-1l2.876-4.819a2.71,2.71,0,0,1,2.892-1.264l4.161.88a2.711,2.711,0,0,1,2.154,2.607l.153,8.991h5.868" transform="translate(950.324 4557.664)" fill="none" stroke="#00b6cb" stroke-linecap="round" stroke-linejoin="round" stroke-width="2"/>
      <text id="_4.0" data-name="4.0" transform="translate(995 4616)" fill="#00b6cb" font-size="16" font-family="Roboto-Medium, Roboto" font-weight="500" letter-spacing="-0.046em" opacity="0.8"><tspan x="-10.592" y="0">4.0</tspan></text>
    </g>
  </g>
</svg>
