<svg xmlns="http://www.w3.org/2000/svg" viewBox="0 0 353.68 353.68">
    <defs>
        <style>.cls-1{fill:#ffffff;}</style>
    </defs>
    <title>Asset 12</title>
    <g id="Layer_2" data-name="Layer 2">
        <g id="Layer_1-2" data-name="Layer 1">
            <path class="cls-1"
                  d="M336,76.63a17.7,17.7,0,0,0-17.68-17.68H271.16V35.37a17.7,17.7,0,0,0-17.68-17.68H218.1A17.7,17.7,0,0,0,200.42,0H117.89a17.7,17.7,0,0,0-17.68,17.68H76.63A17.7,17.7,0,0,0,58.95,35.37V64.84H17.68A17.7,17.7,0,0,0,0,82.53V94.31A17.7,17.7,0,0,0,17.68,112H58.95v35.37H35.37a17.7,17.7,0,0,0-17.68,17.68v5.89a17.7,17.7,0,0,0,17.68,17.68H88.42a17.7,17.7,0,0,0,17.68-17.68v-5.89a17.7,17.7,0,0,0-17.68-17.68H70.74V112h58.95a17.7,17.7,0,0,0,17.68-17.68V82.53a17.7,17.7,0,0,0-17.68-17.68H70.74V35.37a5.9,5.9,0,0,1,5.89-5.89h23.58a17.7,17.7,0,0,0,17.68,17.68h82.53A17.7,17.7,0,0,0,218.1,29.47h35.37a5.9,5.9,0,0,1,5.89,5.89V58.95H206.31a17.7,17.7,0,0,0-17.68,17.68V88.42a17.7,17.7,0,0,0,17.68,17.68H224v53.05H176.84a17.7,17.7,0,0,0-17.68,17.68v106.1a17.7,17.7,0,0,0,17.68,17.68h106.1a17.7,17.7,0,0,0,17.68-17.68V176.84a17.7,17.7,0,0,0-17.68-17.68H235.79V106.1h82.53A17.7,17.7,0,0,0,336,88.42ZM94.31,165.05v5.89a5.9,5.9,0,0,1-5.89,5.89H35.37a5.9,5.9,0,0,1-5.89-5.89v-5.89a5.9,5.9,0,0,1,5.89-5.89H88.42A5.9,5.9,0,0,1,94.31,165.05Zm41.26-82.53V94.31a5.9,5.9,0,0,1-5.89,5.89h-112a5.9,5.9,0,0,1-5.89-5.89V82.53a5.9,5.9,0,0,1,5.89-5.89h112A5.9,5.9,0,0,1,135.58,82.53Zm70.74-53.05a5.9,5.9,0,0,1-5.89,5.89H117.89A5.9,5.9,0,0,1,112,29.47V17.68a5.9,5.9,0,0,1,5.89-5.89h82.53a5.9,5.9,0,0,1,5.89,5.89Zm82.53,147.37v106.1a5.9,5.9,0,0,1-5.89,5.89H176.84a5.9,5.9,0,0,1-5.89-5.89V176.84a5.9,5.9,0,0,1,5.89-5.89h106.1A5.9,5.9,0,0,1,288.84,176.84Zm35.37-88.42a5.9,5.9,0,0,1-5.89,5.89h-112a5.9,5.9,0,0,1-5.89-5.89V76.63a5.9,5.9,0,0,1,5.89-5.89h112a5.9,5.9,0,0,1,5.89,5.89Z"/>
            <path class="cls-1"
                  d="M212.21,265.26H224v11.79h11.79V265.26h11.79a11.8,11.8,0,0,0,11.79-11.79V235.79A11.8,11.8,0,0,0,247.58,224H235.79V206.31h11.79v5.89h11.79v-5.89a11.8,11.8,0,0,0-11.79-11.79H235.79V182.74H224v11.79H212.21a11.8,11.8,0,0,0-11.79,11.79V224a11.8,11.8,0,0,0,11.79,11.79H224v17.68H212.21v-5.89H200.42v5.89A11.8,11.8,0,0,0,212.21,265.26Zm0-41.26V206.31H224V224Zm23.58,11.79h11.79v17.68H235.79Z"/>
            <path class="cls-1" d="M224,336h11.79v17.68H224Z"/>
            <path class="cls-1" d="M138.19,313.26l12.51-12.51,8.34,8.34-12.51,12.51Z"/>
            <path class="cls-1" d="M106.1,224h17.68v11.79H106.1Z"/>
            <path class="cls-1" d="M138.19,146.53l8.34-8.34L159,150.7,150.7,159Z"/>
            <path class="cls-1" d="M300.75,150.7l12.51-12.51,8.34,8.34L309.09,159Z"/>
            <path class="cls-1" d="M336,224h17.68v11.79H336Z"/>
            <path class="cls-1" d="M302.45,307.54,310.6,299l12.77,12.23-8.15,8.52Z"/>
        </g>
    </g>
</svg>