<svg xmlns="http://www.w3.org/2000/svg" viewBox="0 0 360 360"><defs><style>.cls-1{fill:#11509a;}</style></defs><title>Asset 9</title><g id="Layer_2" data-name="Layer 2"><g id="Layer_1-2" data-name="Layer 1"><path class="cls-1" d="M342,60H282V51.52L230.48,0H78V60H18A18,18,0,0,0,0,78V294a18,18,0,0,0,18,18H144v9.5a30.22,30.22,0,0,1-3.17,13.43L128.29,360H231.71l-12.54-25.08A30.22,30.22,0,0,1,216,321.5V312H342a18,18,0,0,0,18-18V78a18,18,0,0,0-18-18ZM234,20.48,261.52,48H234ZM90,12H222V60h48V240H90ZM208.43,340.29l3.86,7.71H147.71l3.86-7.71A42.15,42.15,0,0,0,156,321.5V312h48v9.5a42.15,42.15,0,0,0,4.43,18.79ZM348,294a6,6,0,0,1-6,6H18a6,6,0,0,1-6-6V276H348ZM12,264V78a6,6,0,0,1,6-6H78V252H282V72h60a6,6,0,0,1,6,6V264Zm0,0"/><path class="cls-1" d="M144,48a42,42,0,1,0,42,42,42,42,0,0,0-42-42Zm29.4,36h-12.5A18,18,0,0,0,144,72a17.72,17.72,0,0,0-7.71,1.8L127.48,65A29.95,29.95,0,0,1,173.4,84ZM144,84a6,6,0,1,1-6,6,6,6,0,0,1,6-6Zm0,36a30,30,0,0,1-25-46.52l8.81,8.81A17.72,17.72,0,0,0,126,90a18,18,0,0,0,34.89,6h12.5A30.05,30.05,0,0,1,144,120Zm0,0"/><rect class="cls-1" x="198" y="72" width="60" height="12"/><rect class="cls-1" x="198" y="96" width="60" height="12"/><rect class="cls-1" x="150" y="24" width="60" height="12"/><rect class="cls-1" x="102" y="144" width="60" height="12"/><rect class="cls-1" x="102" y="168" width="60" height="12"/><rect class="cls-1" x="102" y="192" width="60" height="12"/><path class="cls-1" d="M186,206.48l18-18,12,12,40.24-40.24-8.48-8.48L216,183.52l-12-12-18,18V144H174v84h84V216H186Zm0,0"/><rect class="cls-1" x="102" y="216" width="60" height="12"/></g></g></svg>