<svg xmlns="http://www.w3.org/2000/svg" viewBox="0 0 360 360">
    <defs>
        <style>.cls-1{fill:#ffffff;}</style>
    </defs>
    <title>Asset 7</title>
    <g id="Layer_2" data-name="Layer 2">
        <g id="Layer_1-2" data-name="Layer 1">
            <path class="cls-1"
                  d="M277,254.4l-13.46,7.8a48,48,0,0,0-11.5-6.68V240H216v15.52a48,48,0,0,0-11.5,6.66l-.5-.29V228c0-16.49-34.2-24-66-24s-66,7.51-66,24V336c0,16.49,34.2,24,66,24,30.27,0,62.67-6.83,65.7-21.72l.8-.46a48,48,0,0,0,11.5,6.66V360h36V344.48a48,48,0,0,0,11.5-6.66l13.46,7.8,18-31.2-13.45-7.77a45.89,45.89,0,0,0,0-13.28L295,285.6Zm-85.92,0-8.89,15.39A138.69,138.69,0,0,1,138,276c-35.11,0-53.1-8.76-54-12V242.6l.27.11q2.17,1.07,4.64,2c.44.17.92.32,1.37.48,1.27.46,2.58.9,3.94,1.3l2,.55q2,.54,4,1c.65.16,1.3.31,2,.45q2.57.55,5.25,1l1,.18q3.21.52,6.54.93l1.92.2c1.63.18,3.26.34,4.91.47l2.33.18c1.61.1,3.24.2,4.86.27l2.13.1c2.3.08,4.6.12,6.9.12s4.59,0,6.9-.12l2.13-.1c1.63-.07,3.25-.17,4.86-.27l2.33-.18c1.66-.13,3.29-.29,4.91-.47l1.92-.2q3.33-.41,6.54-.93l1-.18q2.68-.46,5.25-1c.66-.14,1.31-.3,2-.45q2.06-.47,4-1l2-.55c1.36-.41,2.67-.85,3.94-1.3.46-.17.93-.32,1.38-.48q2.46-.94,4.64-2l.27-.11V255ZM138,216q3.28,0,6.36.1c.73,0,1.4.07,2.11.1,1.29.05,2.59.1,3.83.18,1,.07,2,.16,2.94.23s1.8.13,2.61.21c1.2.12,2.29.25,3.41.39.57.07,1.2.13,1.72.19,1.48.2,2.88.41,4.24.6l.48.07c16.66,2.77,25.41,7.55,26.26,9.88a2,2,0,0,1-.16.3,2.36,2.36,0,0,1-.23.37c-.09.1-.22.22-.33.34a6.26,6.26,0,0,1-.48.46c-.19.16-.3.23-.46.34s-.45.35-.73.53l-.6.36c-.32.19-.6.38-1,.6l-.73.36c-.41.21-.81.41-1.27.6l-.85.36c-.5.21-1,.43-1.53.64l-1,.36c-.6.21-1.16.43-1.8.64-.37.13-.79.25-1.2.38-.65.2-1.29.41-2,.6-.45.13-.95.25-1.41.38-.71.19-1.41.38-2.16.57-.53.13-1.12.25-1.68.38-.75.17-1.49.35-2.27.51s-1.34.25-2,.37-1.54.3-2.36.43-1.57.23-2.36.36-1.56.25-2.4.35-1.8.21-2.72.31l-2.44.28c-1,.09-2.11.17-3.17.25-.8.06-1.56.14-2.4.19-1.34.09-2.74.14-4.15.2-.6,0-1.2.06-1.8.09-2.06.06-4.2.09-6.36.09-4.39,0-8.51-.14-12.36-.38C98.71,237.85,84.84,230.83,84,228c1.13-3.31,19.11-12,54-12ZM84,278.56C96.76,285,117.85,288,138,288a176.86,176.86,0,0,0,35.6-3.38l-.57,1,13.44,7.77A46.71,46.71,0,0,0,186,300c0,1.35.18,2.73.3,4.11A122.67,122.67,0,0,1,138,312c-35.11,0-53.1-8.76-54-12ZM84,336V314.6c12.77,6.4,33.87,9.4,54,9.4a170.55,170.55,0,0,0,38.26-4l11.26,19.53c-7.39,3.82-23.86,8.5-49.52,8.5-35.11,0-53.1-8.76-54-12Zm185-44.34a34.67,34.67,0,0,1,0,16.67l-1,4.34,10.61,6.12-6,10.39L262,323.07l-3.25,3.06a36.07,36.07,0,0,1-14.4,8.36l-4.3,1.27V348H228V335.76l-4.29-1.27a36.1,36.1,0,0,1-14.4-8.36l-3.25-3.06-10.61,6.13-6-10.39,10.61-6.12-1-4.34a34.8,34.8,0,0,1,0-16.67l1-4.34-10.61-6.13,6-10.39,10.61,6.13,3.25-3.06a36.1,36.1,0,0,1,14.4-8.36l4.29-1.27V252h12v12.24l4.29,1.27a36.1,36.1,0,0,1,14.4,8.36l3.25,3.06,10.61-6.12,6,10.39L268,287.32Zm0,0"/>
            <path class="cls-1"
                  d="M234,276a24,24,0,1,0,24,24,24,24,0,0,0-24-24Zm0,36a12,12,0,1,1,12-12,12,12,0,0,1-12,12Zm0,0"/>
            <path class="cls-1" d="M216,0H144V120h72ZM204,12V84H156V12Zm-24,96H156V96h48v12Zm0,0"/>
            <path class="cls-1"
                  d="M186,102a6.33,6.33,0,0,0-1.74-4.26,6.11,6.11,0,0,0-5.46-1.62,3.84,3.84,0,0,0-1.08.36,4.76,4.76,0,0,0-1.09.54,11,11,0,0,0-.89.72A6.29,6.29,0,0,0,174,102a6,6,0,1,0,12,0Zm0,0"/>
            <path class="cls-1" d="M66,132H54v36H174v24h12V168H306V132H294v24H186V132H174v24H66Zm0,0"/>
            <path class="cls-1"
                  d="M36,108H24v12H96V108H84V96h36V0H0V96H36Zm36,0H48V96H72ZM12,12h96V60H12Zm0,72V72h96V84Zm0,0"/>
            <path class="cls-1" d="M240,120H360V0H240Zm108-12H252V48h96ZM252,12h96V36H252Zm0,0"/>
            <path class="cls-1"
                  d="M267.3,19a3.52,3.52,0,0,0-1-.54,3.6,3.6,0,0,0-1.15-.36,6,6,0,0,0-5.4,1.62,6.24,6.24,0,0,0-1.26,2,5.94,5.94,0,0,0,1.26,6.54,7,7,0,0,0,2,1.26,5.65,5.65,0,0,0,4.56,0,7,7,0,0,0,2-1.26A6,6,0,0,0,270,24a6.33,6.33,0,0,0-1.74-4.26,6.18,6.18,0,0,0-1-.72Zm0,0"/>
            <path class="cls-1"
                  d="M286.26,19.74a6.29,6.29,0,0,0-8.52,0,6.25,6.25,0,0,0-1.26,2A6,6,0,0,0,276,24a5.07,5.07,0,0,0,.48,2.28,7,7,0,0,0,1.26,2,6,6,0,0,0,6.54,1.26,7,7,0,0,0,2-1.26,7,7,0,0,0,1.26-2,5.66,5.66,0,0,0,0-4.56,7,7,0,0,0-1.26-2Zm0,0"/>
            <path class="cls-1"
                  d="M304.26,19.74a7,7,0,0,0-2-1.26,5.67,5.67,0,0,0-3.48-.36,3.84,3.84,0,0,0-1.08.36,4.76,4.76,0,0,0-1.09.54,11,11,0,0,0-.89.72,5.62,5.62,0,0,0-1.26,2,5.66,5.66,0,0,0,0,4.56,7,7,0,0,0,1.26,2,7,7,0,0,0,2,1.26A6,6,0,0,0,300,30a6.22,6.22,0,0,0,4.26-1.74,7,7,0,0,0,1.26-2,5.66,5.66,0,0,0,0-4.56,5.62,5.62,0,0,0-1.26-2Zm0,0"/>
        </g>
    </g>
</svg>