<svg xmlns="http://www.w3.org/2000/svg" viewBox="0 0 360 360">
    <defs>
        <style>.cls-1{fill:#ffffff;}</style>
    </defs>
    <title>Asset 10</title>
    <g id="Layer_2" data-name="Layer 2">
        <g id="Layer_1-2" data-name="Layer 1">
            <path class="cls-1"
                  d="M342,0H18A18,18,0,0,0,0,18V342a18,18,0,0,0,18,18H342a18,18,0,0,0,18-18V18A18,18,0,0,0,342,0Zm6,342a6,6,0,0,1-6,6H18a6,6,0,0,1-6-6V60H348ZM12,48V18a6,6,0,0,1,6-6H342a6,6,0,0,1,6,6V48Zm0,0"/>
            <path class="cls-1"
                  d="M27.72,24.48a5.4,5.4,0,0,0-3.24,3.24,5.66,5.66,0,0,0,0,4.56,6.25,6.25,0,0,0,1.26,2,7,7,0,0,0,2,1.26A6,6,0,0,0,30,36a7.5,7.5,0,0,0,1.14-.12,3.58,3.58,0,0,0,1.14-.36A4.41,4.41,0,0,0,33.36,35a9.23,9.23,0,0,0,.9-.72,6,6,0,0,0-6.54-9.78Zm0,0"/>
            <path class="cls-1"
                  d="M56.28,24.48a5.5,5.5,0,0,0-4.56,0,5.4,5.4,0,0,0-3.24,3.24,5.66,5.66,0,0,0,0,4.56,6.25,6.25,0,0,0,1.26,2,7,7,0,0,0,2,1.26,5.66,5.66,0,0,0,4.56,0,6.25,6.25,0,0,0,2-1.26,6.09,6.09,0,0,0,0-8.52,6.25,6.25,0,0,0-2-1.26Zm0,0"/>
            <path class="cls-1"
                  d="M82.26,25.74a6,6,0,0,0-6.54-1.26,7,7,0,0,0-2,1.26,6.25,6.25,0,0,0-1.26,2,5.66,5.66,0,0,0,0,4.56,6.25,6.25,0,0,0,1.26,2,7,7,0,0,0,2,1.26A6,6,0,0,0,78,36a6.33,6.33,0,0,0,4.26-1.74,6.25,6.25,0,0,0,1.26-2,5.66,5.66,0,0,0,0-4.56,6.25,6.25,0,0,0-1.26-2Zm0,0"/>
            <path class="cls-1"
                  d="M42,336H318a18,18,0,0,0,18-18V90a18,18,0,0,0-18-18H138a18,18,0,0,0-18,18v66H42a18,18,0,0,0-18,18V318a18,18,0,0,0,18,18Zm-6-18v-6h96v6a6,6,0,0,1-6,6H42a6,6,0,0,1-6-6Zm0-126h96V300H36Zm288,96H144V174a18,18,0,0,0-12-16.9V120H324Zm-96,30a6,6,0,1,1,6-6,6,6,0,0,1-6,6Zm-13.32,6H142.89a17.83,17.83,0,0,0,1.11-6V300h70.68a17.73,17.73,0,0,0,0,24ZM318,324H241.32a17.73,17.73,0,0,0,0-24H324v18a6,6,0,0,1-6,6ZM138,84H318a6,6,0,0,1,6,6v18H132V90a6,6,0,0,1,6-6ZM42,168h84a6,6,0,0,1,6,6v6H36v-6a6,6,0,0,1,6-6Zm0,0"/>
            <path class="cls-1"
                  d="M228,102a6.33,6.33,0,0,0,4.26-1.74A6.22,6.22,0,0,0,234,96a6,6,0,0,0-.48-2.28,5.62,5.62,0,0,0-1.26-2,6.29,6.29,0,0,0-8.52,0,5.62,5.62,0,0,0-1.26,2A6,6,0,0,0,222,96a6.22,6.22,0,0,0,1.74,4.26A6.33,6.33,0,0,0,228,102Zm0,0"/>
        </g>
    </g>
</svg>