<svg xmlns="http://www.w3.org/2000/svg" viewBox="0 0 351.2 360"><defs><style>.cls-1{fill:#11509a;}</style></defs><title>Asset 8</title><g id="Layer_2" data-name="Layer 2"><g id="Layer_1-2" data-name="Layer 1"><path class="cls-1" d="M30,312v42a6,6,0,0,0,6,6H324a6,6,0,0,0,6-6V320.46a26.93,26.93,0,0,0,13.24-7.22,27.24,27.24,0,0,0,0-38.48L330,261.52V186a6,6,0,0,0-6-6H312V84a30,30,0,0,0-30-30H216V30A30,30,0,0,0,186,0H42A30,30,0,0,0,12,30V264H6a6,6,0,0,0-6,6v12a30,30,0,0,0,30,30Zm12,36V312H144a24,24,0,0,0,24-24V192h8.55a65.83,65.83,0,0,0,86.66,79.7l41.54,41.54A26.93,26.93,0,0,0,318,320.46V348Zm198-84a54,54,0,1,1,54-54,54.06,54.06,0,0,1-54,54Zm94.76,40.76a15.23,15.23,0,0,1-21.52,0l-38.65-38.65a66.37,66.37,0,0,0,21.52-21.52l38.65,38.65a15.24,15.24,0,0,1,0,21.52ZM318,249.52l-16.3-16.3A64.79,64.79,0,0,0,303.44,192H318ZM300,84v96h-1.29a65.88,65.88,0,0,0-117.43,0H168V132h66a30,30,0,0,0,30-30V84a18,18,0,0,1,36,0ZM258.16,66A29.7,29.7,0,0,0,252,84v18a18,18,0,0,1-36,0V66ZM204,30v72a29.7,29.7,0,0,0,6.16,18H168V30a18,18,0,1,1,36,0ZM24,30A18,18,0,0,1,42,12H162.16A29.7,29.7,0,0,0,156,30V288a12,12,0,0,1-24,0V270a6,6,0,0,0-6-6H24ZM12,276H120v12a23.83,23.83,0,0,0,3.22,12H30a18,18,0,0,1-18-18Zm0,0"/><rect class="cls-1" x="114" y="162" width="30" height="12"/><rect class="cls-1" x="36" y="162" width="66" height="12"/><rect class="cls-1" x="36" y="48" width="12" height="12"/><rect class="cls-1" x="36" y="186" width="108" height="12"/><rect class="cls-1" x="36" y="210" width="108" height="12"/><rect class="cls-1" x="36" y="234" width="108" height="12"/><rect class="cls-1" x="114" y="72" width="30" height="12"/><rect class="cls-1" x="36" y="72" width="66" height="12"/><rect class="cls-1" x="114" y="96" width="30" height="12"/><rect class="cls-1" x="36" y="96" width="66" height="12"/><rect class="cls-1" x="36" y="138" width="12" height="12"/><path class="cls-1" d="M228,219.52l-13.76-13.76-8.48,8.48,18,18a6,6,0,0,0,8.48,0l42-42-8.48-8.48Zm0,0"/></g></g></svg>