<svg xmlns="http://www.w3.org/2000/svg" viewBox="0 0 360 360">
    <defs>
        <style>.cls-1{fill:#ffffff;}</style>
    </defs>
    <title>Asset 11</title>
    <g id="Layer_2" data-name="Layer 2">
        <g id="Layer_1-2" data-name="Layer 1">
            <path class="cls-1"
                  d="M342,162a18,18,0,0,0-16.9,12H288V162a6,6,0,0,0-6-6H271.78a16.5,16.5,0,0,1-11.66-28.16l7.23-7.23a6,6,0,0,0,0-8.48L241.88,86.66a6,6,0,0,0-8.49,0l-7.23,7.23A16.5,16.5,0,0,1,198,82.23V72a6,6,0,0,0-6-6H154.9A18,18,0,0,0,138,54H18A18,18,0,0,0,0,72V288a18,18,0,0,0,18,18H138a18,18,0,0,0,16.89-12H192a6,6,0,0,0,6-6V277.78a16.5,16.5,0,0,1,28.16-11.66l7.23,7.23a6,6,0,0,0,8.48,0l25.46-25.46a6,6,0,0,0,0-8.49l-7.23-7.23A16.5,16.5,0,0,1,271.78,204H282a6,6,0,0,0,6-6V186h37.1A18,18,0,1,0,342,162ZM156,129.16a54,54,0,1,1,0,101.68ZM97.1,66A17.81,17.81,0,0,0,96,72a6,6,0,0,1-6,6H66a6,6,0,0,1-6-6,17.81,17.81,0,0,0-1.1-6ZM144,288a6,6,0,0,1-6,6H18a6,6,0,0,1-6-6V72a6,6,0,0,1,6-6H42a6,6,0,0,1,6,6A18,18,0,0,0,66,90H90a18,18,0,0,0,18-18,6,6,0,0,1,6-6h24a6,6,0,0,1,6,6Zm132-96h-4.22a28.5,28.5,0,0,0-20.16,48.65l3,3-17,17-3-3A28.49,28.49,0,0,0,186,277.78V282H156V243.41A65.39,65.39,0,0,0,174,246a66,66,0,1,0,0-132,65.39,65.39,0,0,0-18,2.59V78h30v4.22a28.5,28.5,0,0,0,48.65,20.16l3-3,17,17-3,3A28.49,28.49,0,0,0,271.78,168H276Zm66-6a6,6,0,1,1,6-6,6,6,0,0,1-6,6Zm0,0"/>
            <path class="cls-1"
                  d="M342,66a18,18,0,0,0-16.9,12H294a6,6,0,0,0-4.8,2.4l-18,24,9.6,7.2L297,90h28.1A18,18,0,1,0,342,66Zm0,24a6,6,0,1,1,6-6,6,6,0,0,1-6,6Zm0,0"/>
            <path class="cls-1"
                  d="M342,0a18,18,0,0,0-16.9,12H210a6,6,0,0,0-6,6V48h12V24H325.1A18,18,0,1,0,342,0Zm0,24a6,6,0,1,1,6-6,6,6,0,0,1-6,6Zm0,0"/>
            <path class="cls-1"
                  d="M342,258a18,18,0,0,0-16.9,12H297l-16.2-21.6-9.6,7.2,18,24A6,6,0,0,0,294,282h31.1A18,18,0,1,0,342,258Zm0,24a6,6,0,1,1,6-6,6,6,0,0,1-6,6Zm0,0"/>
            <path class="cls-1"
                  d="M342,324a18,18,0,0,0-16.9,12H216V312H204v30a6,6,0,0,0,6,6H325.1A18,18,0,1,0,342,324Zm0,24a6,6,0,1,1,6-6,6,6,0,0,1-6,6Zm0,0"/>
            <path class="cls-1"
                  d="M126,102H30a6,6,0,0,0-6,6V270a6,6,0,0,0,6,6h96a6,6,0,0,0,6-6V108a6,6,0,0,0-6-6Zm-6,12v12H36V114ZM36,264V138h84V264Zm0,0"/>
            <rect class="cls-1" x="48" y="150" width="12" height="12"/>
            <rect class="cls-1" x="72" y="150" width="12" height="12"/>
            <rect class="cls-1" x="84" y="234" width="24" height="12"/>
        </g>
    </g>
</svg>